# Blender v3.2.0 OBJ File: 'headstone.blend'
# www.blender.org
o headstone_03
v -0.500000 0.000000 0.225000
v -0.500000 0.100000 0.225000
v -0.500000 0.000000 -0.225000
v -0.500000 0.100000 -0.225000
v 0.500000 0.000000 0.225000
v 0.500000 0.100000 0.225000
v 0.500000 0.000000 -0.225000
v 0.500000 0.100000 -0.225000
v -0.430000 0.100000 -0.058568
v -0.430000 1.000498 -0.058568
v -0.430000 0.100000 -0.134568
v -0.430000 1.000498 -0.134568
v 0.430000 0.100000 -0.058568
v 0.430000 1.000498 -0.058568
v 0.430000 0.100000 -0.134568
v 0.430000 1.000498 -0.134568
v -0.307967 0.100000 -0.134568
v 0.307967 0.100000 -0.134568
v -0.153984 0.100000 -0.134568
v -0.000000 0.100000 -0.134568
v 0.153983 0.100000 -0.134568
v 0.307898 1.053353 -0.134568
v -0.307899 1.053353 -0.134568
v 0.166633 1.094212 -0.134568
v -0.000000 1.108560 -0.134568
v -0.166634 1.094212 -0.134568
v 0.307967 0.100000 -0.058568
v -0.307967 0.100000 -0.058568
v 0.153983 0.100000 -0.058568
v -0.000000 0.100000 -0.058568
v -0.153984 0.100000 -0.058568
v -0.307899 1.053353 -0.058568
v 0.307898 1.053353 -0.058568
v -0.166634 1.094212 -0.058568
v -0.000000 1.108560 -0.058568
v 0.166633 1.094212 -0.058568
vt 0.018835 0.600903
vt 0.071304 0.600902
vt 0.071304 0.837016
vt 0.018835 0.837016
vt 0.071304 0.889486
vt 0.596001 0.837016
vt 0.596001 0.889486
vt 0.648470 0.837016
vt 0.596001 0.600902
vt 0.648470 0.600902
vt 0.596001 0.548433
vt 0.071304 0.548433
vt 0.043857 0.005784
vt 0.043857 0.478272
vt 0.003980 0.478272
vt 0.003980 0.005784
vt 0.540938 0.944960
vt 0.471136 0.944960
vt 0.471136 0.905088
vt 0.540938 0.905088
vt 0.534972 0.005784
vt 0.534972 0.478272
vt 0.495095 0.478272
vt 0.495095 0.005784
vt 0.431029 0.506005
vt 0.431065 0.005784
vt 0.141346 0.944960
vt 0.071544 0.944960
vt 0.071544 0.905088
vt 0.141346 0.905088
vt 0.606297 0.004900
vt 0.606334 0.505118
vt 0.542268 0.477385
vt 0.542268 0.004900
vt 0.107887 0.005784
vt 0.107923 0.506005
vt 0.218497 0.905088
vt 0.218496 0.944960
vt 0.306241 0.905088
vt 0.306241 0.944960
vt 0.393986 0.905088
vt 0.393986 0.944960
vt 0.188682 0.005785
vt 0.182044 0.527443
vt 0.269476 0.005785
vt 0.269476 0.534972
vt 0.350271 0.005785
vt 0.356908 0.527444
vt 0.687092 0.004900
vt 0.680454 0.526556
vt 0.767886 0.004900
vt 0.767886 0.534085
vt 0.848680 0.004900
vt 0.855317 0.526556
vt 0.929474 0.004900
vt 0.929438 0.505118
vt 0.993504 0.004900
vt 0.993504 0.477385
vn -1.0000 0.0000 0.0000
vn 0.0000 0.0000 -1.0000
vn 1.0000 0.0000 0.0000
vn 0.0000 0.0000 1.0000
vn 0.0000 1.0000 0.0000
vn 0.3973 0.9177 0.0000
vn 0.3382 0.9411 0.0000
vn -0.3382 0.9411 0.0000
vn -0.3973 0.9177 0.0000
vn -0.1827 0.9832 0.0000
vn 0.1827 0.9832 0.0000
s 1
f 1/1/1 2/2/1 4/3/1 3/4/1
f 3/5/2 4/3/2 8/6/2 7/7/2
f 7/8/3 8/6/3 6/9/3 5/10/3
f 5/11/4 6/9/4 2/2/4 1/12/4
f 8/6/5 4/3/5 2/2/5 6/9/5
f 9/13/1 10/14/1 12/15/1 11/16/1
f 16/17/6 22/18/7 33/19/7 14/20/6
f 15/21/3 16/22/3 14/23/3 13/24/3
f 13/24/4 14/23/4 33/25/4 27/26/4
f 23/27/8 12/28/9 10/29/9 32/30/8
f 18/31/2 22/32/2 16/33/2 15/34/2
f 28/35/4 32/36/4 10/14/4 9/13/4
f 23/27/8 32/30/8 34/37/10 26/38/10
f 26/38/10 34/37/10 35/39/5 25/40/5
f 25/40/5 35/39/5 36/41/11 24/42/11
f 24/42/11 36/41/11 33/19/7 22/18/7
f 32/36/4 28/35/4 31/43/4 34/44/4
f 34/44/4 31/43/4 30/45/4 35/46/4
f 35/46/4 30/45/4 29/47/4 36/48/4
f 36/48/4 29/47/4 27/26/4 33/25/4
f 22/32/2 18/31/2 21/49/2 24/50/2
f 24/50/2 21/49/2 20/51/2 25/52/2
f 25/52/2 20/51/2 19/53/2 26/54/2
f 26/54/2 19/53/2 17/55/2 23/56/2
f 11/57/2 12/58/2 23/56/2 17/55/2
